<svg xmlns="http://www.w3.org/2000/svg" width="1200" height="800" viewBox="0 0 1200 800" role="img" aria-labelledby="title desc">
  <title id="title">SAMSWEET M.2 NGFF SSD placeholder visual</title>
  <desc id="desc">Dark M.2 NGFF SATA SSD placeholder with compact module shape.</desc>
  <defs>
    <linearGradient id="bg" x1="0" y1="0" x2="1" y2="1">
      <stop offset="0" stop-color="#05070d"/>
      <stop offset="1" stop-color="#12192a"/>
    </linearGradient>
    <linearGradient id="label" x1="0" y1="0" x2="1" y2="1">
      <stop offset="0" stop-color="#eaf2ff"/>
      <stop offset="1" stop-color="#8291a3"/>
    </linearGradient>
  </defs>
  <rect width="1200" height="800" fill="url(#bg)"/>
  <path d="M130 580 C260 420 410 360 620 370 C820 378 940 285 1070 170" fill="none" stroke="#20d4ff" stroke-width="3" opacity="0.26"/>
  <g transform="translate(165 325) rotate(-6 435 85)">
    <rect x="0" y="0" width="870" height="170" rx="30" fill="#07111f" stroke="#34dcff" stroke-opacity="0.36" stroke-width="3"/>
    <rect x="42" y="34" width="370" height="102" rx="20" fill="url(#label)"/>
    <rect x="452" y="38" width="86" height="88" rx="12" fill="#101827" stroke="#dce8f5" stroke-opacity="0.24"/>
    <rect x="570" y="38" width="86" height="88" rx="12" fill="#101827" stroke="#dce8f5" stroke-opacity="0.24"/>
    <rect x="688" y="38" width="86" height="88" rx="12" fill="#101827" stroke="#dce8f5" stroke-opacity="0.24"/>
    <circle cx="830" cy="85" r="15" fill="#cbd5e1"/>
    <text x="78" y="84" fill="#06111f" font-family="Arial, sans-serif" font-size="36" font-weight="700">SAMSWEET</text>
    <text x="80" y="118" fill="#16324a" font-family="Arial, sans-serif" font-size="18" font-weight="700">M.2 NGFF SATA SSD</text>
  </g>
</svg>
